/* XPM */
static char * 48x48_xpm[] = {
"48 48 437 2",
"  	c None",
". 	c #9F1C17",
"+ 	c #9E1C17",
"@ 	c #9D1C17",
"# 	c #9D1C16",
"$ 	c #9C1D17",
"% 	c #9C1C16",
"& 	c #9D1F19",
"* 	c #9D1E18",
"= 	c #9D1F1A",
"- 	c #9C1F19",
"; 	c #9D1E19",
"> 	c #9C1E19",
", 	c #9C1E18",
"' 	c #9C1D18",
") 	c #AC4541",
"! 	c #C88986",
"~ 	c #DFBFBD",
"{ 	c #EADAD9",
"] 	c #F5F5F5",
"^ 	c #D4A4A1",
"/ 	c #BD6D6A",
"( 	c #A12924",
"_ 	c #9B1C16",
": 	c #9B1C17",
"< 	c #9E221D",
"[ 	c #9E211C",
"} 	c #9D211C",
"| 	c #9D201B",
"1 	c #9C1F1A",
"2 	c #B25450",
"3 	c #DFBFBE",
"4 	c #EFE7E7",
"5 	c #A12925",
"6 	c #9C1D19",
"7 	c #9F2520",
"8 	c #9E2420",
"9 	c #9E241F",
"0 	c #9E231F",
"a 	c #9E231E",
"b 	c #9D221D",
"c 	c #C98B88",
"d 	c #E4CCCB",
"e 	c #9B1D18",
"f 	c #9C201B",
"g 	c #9E221E",
"h 	c #A02824",
"i 	c #9F2823",
"j 	c #9F2722",
"k 	c #9F2621",
"l 	c #9E2520",
"m 	c #D4A6A5",
"n 	c #F0E8E8",
"o 	c #CE9996",
"p 	c #AD4945",
"q 	c #A12C28",
"r 	c #BD6F6C",
"s 	c #DFC0BE",
"t 	c #EFE8E7",
"u 	c #AC4642",
"v 	c #9B1E19",
"w 	c #9C211C",
"x 	c #9D221E",
"y 	c #9D231E",
"z 	c #9D241F",
"A 	c #9F2622",
"B 	c #A12C27",
"C 	c #A12B27",
"D 	c #A02A26",
"E 	c #A02924",
"F 	c #9F2824",
"G 	c #CF9B99",
"H 	c #DAB4B3",
"I 	c #A3312D",
"J 	c #B86460",
"K 	c #A73A36",
"L 	c #9D231F",
"M 	c #9E2621",
"N 	c #A02925",
"O 	c #A2302C",
"P 	c #A12F2B",
"Q 	c #A12E2A",
"R 	c #A12D29",
"S 	c #B55E5B",
"T 	c #C58380",
"U 	c #9E2823",
"V 	c #9E2722",
"W 	c #9D2520",
"X 	c #9D2420",
"Y 	c #9C231F",
"Z 	c #A73D39",
"` 	c #E4CECD",
" .	c #DFC0BF",
"..	c #9C221E",
"+.	c #9C231E",
"@.	c #9C241F",
"#.	c #9D2621",
"$.	c #9F2924",
"%.	c #9F2925",
"&.	c #9F2B26",
"*.	c #A02C27",
"=.	c #A12F2A",
"-.	c #A43530",
";.	c #A3332F",
">.	c #A3322D",
",.	c #A2312C",
"'.	c #EBDCDC",
").	c #D6AAA9",
"!.	c #A02C28",
"~.	c #A02B27",
"{.	c #9F2A25",
"].	c #AE4D49",
"^.	c #BE7370",
"/.	c #9F2A26",
"(.	c #A12E29",
"_.	c #A3332E",
":.	c #A43833",
"<.	c #A43732",
"[.	c #A33530",
"}.	c #BC706D",
"|.	c #EADCDC",
"1.	c #A63B37",
"2.	c #A02E29",
"3.	c #A02D28",
"4.	c #9F2D27",
"5.	c #9E2924",
"6.	c #9E2923",
"7.	c #9D2822",
"8.	c #9D2721",
"9.	c #9D2620",
"0.	c #C3807D",
"a.	c #9C2620",
"b.	c #9C2520",
"c.	c #9D2722",
"d.	c #9F2C27",
"e.	c #A1312C",
"f.	c #A2332D",
"g.	c #A53B36",
"h.	c #A53934",
"i.	c #A43733",
"j.	c #D6ADAC",
"k.	c #C17B78",
"l.	c #A1302C",
"m.	c #A02D29",
"n.	c #9F2D28",
"o.	c #9F2C26",
"p.	c #9E2A25",
"q.	c #9E2925",
"r.	c #9E2824",
"s.	c #9D2723",
"t.	c #EADBDB",
"u.	c #A8403B",
"v.	c #9C2621",
"w.	c #9D2622",
"x.	c #9D2823",
"y.	c #A02E2A",
"z.	c #A2322D",
"A.	c #A3342F",
"B.	c #A33531",
"C.	c #A53A35",
"D.	c #A8403D",
"E.	c #A73E3B",
"F.	c #A63D39",
"G.	c #EBDEDD",
"H.	c #A8403E",
"I.	c #A23430",
"J.	c #A2332F",
"K.	c #A1312E",
"L.	c #A0302D",
"M.	c #A02E2B",
"N.	c #9F2D2A",
"O.	c #9F2C28",
"P.	c #9F2C29",
"Q.	c #9E2B27",
"R.	c #9E2A26",
"S.	c #9E2926",
"T.	c #9D2825",
"U.	c #9D2724",
"V.	c #CF9B9A",
"W.	c #BE7472",
"X.	c #9D2925",
"Y.	c #9F2D29",
"Z.	c #A02F2C",
"`.	c #A1302D",
" +	c #A1322F",
".+	c #A33633",
"++	c #A43734",
"@+	c #A53A37",
"#+	c #A63D3A",
"$+	c #A7403D",
"%+	c #AA4A48",
"&+	c #A94745",
"*+	c #A84442",
"=+	c #E6D2D2",
"-+	c #A43C39",
";+	c #A43A37",
">+	c #A33836",
",+	c #A23634",
"'+	c #A13532",
")+	c #A03330",
"!+	c #A0322F",
"~+	c #A0312F",
"{+	c #9F302E",
"]+	c #9F302D",
"^+	c #9F2F2D",
"/+	c #9E2E2C",
"(+	c #9E2E2B",
"_+	c #9E2D2A",
":+	c #A84543",
"<+	c #C9908E",
"[+	c #B96B69",
"}+	c #C9908F",
"|+	c #9D2B28",
"1+	c #9D2B29",
"2+	c #9D2C2A",
"3+	c #9F2F2C",
"4+	c #A03230",
"5+	c #A13431",
"6+	c #A33835",
"7+	c #A43A38",
"8+	c #A43D3A",
"9+	c #A6403E",
"0+	c #A74240",
"a+	c #AA4947",
"b+	c #9C2D2A",
"c+	c #A5403E",
"d+	c #AB4F4D",
"e+	c #F4F4F4",
"f+	c #E1C9C8",
"g+	c #A64442",
"h+	c #A54240",
"i+	c #A4403E",
"j+	c #A43E3C",
"k+	c #A33D3A",
"l+	c #A23B38",
"m+	c #A13936",
"n+	c #A13835",
"o+	c #A03734",
"p+	c #A03533",
"q+	c #A03532",
"r+	c #9F3431",
"s+	c #9F3330",
"t+	c #9E3230",
"u+	c #CA9492",
"v+	c #C48786",
"w+	c #D4ABAA",
"x+	c #9E312F",
"y+	c #9E322F",
"z+	c #9F3532",
"A+	c #A03634",
"B+	c #A13937",
"C+	c #A64341",
"D+	c #A74644",
"E+	c #A94947",
"F+	c #AA4D4B",
"G+	c #A84846",
"H+	c #8D100D",
"I+	c #8E1411",
"J+	c #E1CBCA",
"K+	c #A9504E",
"L+	c #A84D4B",
"M+	c #A74B49",
"N+	c #A64846",
"O+	c #A54644",
"P+	c #A44341",
"Q+	c #A3413F",
"R+	c #A2403E",
"S+	c #A23F3C",
"T+	c #A13E3B",
"U+	c #A13D3A",
"V+	c #A03C39",
"W+	c #A03B39",
"X+	c #9F3A37",
"Y+	c #CA9796",
"Z+	c #B56866",
"`+	c #D5AFAE",
" @	c #9F3836",
".@	c #9F3936",
"+@	c #A03A38",
"@@	c #A3423F",
"#@	c #A44442",
"$@	c #A94E4C",
"%@	c #A44543",
"&@	c #9A2D2A",
"*@	c #901816",
"=@	c #8A100D",
"-@	c #E8D8D8",
";@	c #8C1411",
">@	c #92211E",
",@	c #99312E",
"'@	c #9F3C3A",
")@	c #A44745",
"!@	c #A74D4B",
"~@	c #A64B49",
"{@	c #A54B48",
"]@	c #A54A48",
"^@	c #A44946",
"/@	c #A34644",
"(@	c #A34442",
"_@	c #A24341",
":@	c #A14240",
"<@	c #E5D3D3",
"[@	c #EBDFDF",
"}@	c #BB7978",
"|@	c #CB9B9A",
"1@	c #A1403E",
"2@	c #A1413E",
"3@	c #A1413F",
"4@	c #A24441",
"5@	c #A34542",
"6@	c #A44846",
"7@	c #A64D4B",
"8@	c #A8504D",
"9@	c #9D3936",
"0@	c #962926",
"a@	c #8E1916",
"b@	c #87100D",
"c@	c #E7D8D8",
"d@	c #952D2A",
"e@	c #891411",
"f@	c #8F211E",
"g@	c #952D2B",
"h@	c #97312F",
"i@	c #9B3936",
"j@	c #9E403E",
"k@	c #9E3F3D",
"l@	c #A54F4D",
"m@	c #A54E4C",
"n@	c #B87674",
"o@	c #D1ABAA",
"p@	c #D6B5B4",
"q@	c #E5D4D4",
"r@	c #B77473",
"s@	c #A34B49",
"t@	c #A44D4B",
"u@	c #A6504E",
"v@	c #A24846",
"w@	c #9B3937",
"x@	c #85100D",
"y@	c #CB9F9E",
"z@	c #BD8381",
"A@	c #E0CAC9",
"B@	c #A04845",
"C@	c #F0EBEB",
"D@	c #EBE1E0",
"E@	c #B77775",
"F@	c #8B1D1A",
"G@	c #82100D",
"H@	c #9E4947",
"I@	c #EEE7E7",
"J@	c #891E1C",
"K@	c #CA9F9E",
"L@	c #BB8381",
"M@	c #AD6664",
"N@	c #7E100D",
"O@	c #D7BCBB",
"P@	c #D0ADAD",
"Q@	c #8D2D2A",
"R@	c #D8BCBB",
"S@	c #C89F9E",
"T@	c #953B39",
"U@	c #BA8381",
"V@	c #861E1C",
"W@	c #7A100D",
"X@	c #913B39",
"Y@	c #C79F9E",
"Z@	c #8A2D2A",
"`@	c #994947",
" #	c #A96664",
".#	c #BF9190",
"+#	c #923B39",
"@#	c #EDE7E7",
"##	c #B88381",
"$#	c #77100D",
"%#	c #AE7473",
"&#	c #D6BCBB",
"*#	c #872D2A",
"=#	c #D5BCBB",
"-#	c #CDADAD",
";#	c #964947",
">#	c #C69F9E",
",#	c #72100D",
"'#	c #C49F9E",
")#	c #C59F9E",
"!#	c #9C5856",
"~#	c #934947",
"{#	c #924947",
"]#	c #944947",
"^#	c #AC7473",
"/#	c #E5D8D8",
"(#	c #8B3B39",
"_#	c #6E100D",
":#	c #A06664",
"<#	c #ECE7E7",
"[#	c #D3BCBB",
"}#	c #975856",
"|#	c #904947",
"1#	c #69100D",
"2#	c #7A2C2A",
"3#	c #C09F9E",
"4#	c #E3D8D8",
"5#	c #9D6664",
"6#	c #D2BCBB",
"7#	c #955856",
"8#	c #630F0D",
"9#	c #6C1D1C",
"0#	c #996564",
"a#	c #BE9F9E",
"b#	c #D0BCBB",
"c#	c #AB8281",
"d#	c #7E3A39",
"e#	c #752C2A",
"f#	c #5D0F0C",
"g#	c #661D1B",
"h#	c #A88281",
"i#	c #EBE7E6",
"j#	c #A98281",
"k#	c #570F0C",
"l#	c #601D1B",
"m#	c #9B7472",
"n#	c #E1D8D8",
"o#	c #885755",
"p#	c #550F0C",
"q#	c #916563",
"r#	c #B99F9E",
"s#	c #540F0C",
"t#	c #865755",
"u#	c #CDBCBB",
"v#	c #D7CAC9",
"w#	c #7C4946",
"x#	c #5E1D1B",
"y#	c #682C29",
"z#	c #AF908F",
"A#	c #530F0C",
"B#	c #520F0C",
"C#	c #510F0C",
"D#	c #500E0C",
"        . . . . . . . . . . . . . . . . . . . . . . . . . . . . . . . . . . . . . . . .         ",
"    . . . . . . . . . . . . . . . . . . . . . . . . . . . . . . . . . . . . . . . . . . . .     ",
"  + . . . . . . . . . . . . . . . . . . . . . . . . . . . . . . . . . . . . . . . . . . . . +   ",
"  + + + + + + + + + + + + + + + + + + + + + + + + + + + + + + + + + + + + + + + + + + + + + +   ",
"+ + + + + + + + + + + + + + + + + + + + + + + + + + + + + + + + + + + + + + + + + + + + + + + + ",
"@ @ @ @ @ @ @ @ @ @ @ @ @ @ @ @ @ @ @ @ @ @ @ @ @ @ @ @ @ @ @ @ @ @ @ @ @ @ @ @ @ @ @ @ @ @ @ @ ",
"# # # # # # # # # # # # # # # # # # # # # # # # # # # # # # # # # # # # # # # # # # # # # # # # ",
"$ $ $ $ $ % % % % % % % % % % % % % % % % % % % % % % % % % % % % % % % % % % % % % % % % % % % ",
"& * * * * $ $ $ $ $ $ % % % % % % % % % % % % % % % % % % % % % % % % % % % % % % % % % % $ $ $ ",
"= = & - ; > > , ' ' ) ! ~ { ] ] ~ ^ / ( _ _ _ _ _ _ _ _ _ _ _ _ _ _ _ _ _ _ _ : : : $ $ ' ' , ; ",
"< < [ } | = 1 > 2 3 ] ] ] ] ] ] ] ] ] 4 ! 5 : : : : : : : : : : : : : : : : : ' ' 6 > > > > = | ",
"7 8 9 0 a b } c ] ] ] ] ] ] ] ] ] ] ] ] ] d ) e e e e e e e e e e e e > > > > > > > 1 f } b g a ",
"h i j k l 8 m ] ] ] n o p f 1 1 q r s ] ] ] t u v v v v v v v v v v v v 1 1 f f w } x y z 9 l A ",
"B C D E F G ] ] ] H I z y x b b b b w J n ] ] t K f f f f f f f f w w w b x y L 9 9 l M j i N D ",
"O P Q R S ] ] ] T U U V M W W W X z z Y Z ` ] ]  ...+.....+.+.+.+.@.@.z X W #.V V U $.%.&.*.R =.",
"-.;.>.,.'.] ] ).!.~.D {.$.i U U V V V M #.].n ] ] ^.W W W W W l M M M V U $.%.{./.~.!.(.=.O >._.",
":.<.[.}.] ] |.1.2.3.4.&.{.5.5.6.U 7.8.8.#.9.0.] ] ` a.b.b.#.#.8.8.c.c.U U 5.{.&.d.3.2.P e.f.[.<.",
"g.h.i.j.] ] k.l.=.m.n.o.&.p.p.q.5.r.s.s.c.#.a.t.] ] u.#.v.#.c.w.w.s.x.q.q.&.d.4.m.y.l.z.A.B.i.C.",
"D.E.F.G.] ] H.I.J.K.L.M.N.O.P.Q.Q.R.S.T.T.U.U.V.] ] W.U.U.T.T.X.S.R.R.Q.O.Y.M.Z.`. +I..+++@+#+$+",
"%+&+*+] ] =+-+;+>+,+'+)+!+~+~+{+]+^+/+(+_+:+<+[+] ] }+|+1+2+_+_+(+/+3+{+~+4+5+'+,+6+7+8+9+0+:+a+",
"b+c+d+e+] f+g+h+i+j+k+l+m+n+n+o+p+q+r+s+t+u+] v+] ] w+x+y+t+s+r+r+z+q+A+n+B+l+k+j+i+C+D+E+F+G+p+",
"H+H+I+] ] J+K+L+M+N+O+P+Q+R+R+S+T+U+V+W+X+Y+] Z+] ] `+ @.@X+X++@W+U+U+S+R+@@#@O+N+M+$@%@&@*@H+H+",
"=@=@=@] ] -@;@>@,@'@)@!@~@{@]@^@)@/@(@_@:@<@[@}@] ] |@1@2@3@_@_@4@5@/@6@]@7@8@(@9@0@a@=@=@=@=@=@",
"b@b@b@c@] ] d@b@b@b@b@e@f@g@h@i@j@k@l@m@n@e+o@p@e+e+q@r@s@t@t@l@u@v@j@w@g@f@b@b@b@b@b@b@b@b@b@b@",
"x@x@x@y@] ] z@x@x@x@x@x@x@x@x@x@x@x@x@x@A@] B@C@] ] ] ] D@E@F@x@x@x@x@x@x@x@x@x@x@x@x@x@x@x@x@x@",
"G@G@G@H@] ] I@J@G@G@G@G@G@G@G@G@G@G@G@K@] L@L@] ] ] ] ] ] ] c@M@G@G@G@G@G@G@G@G@G@G@G@G@G@G@G@G@",
"N@N@N@N@O@] ] P@N@N@N@N@N@N@N@N@N@Q@R@] S@T@] ] ] ] ] ] ] ] ] ] I@U@V@N@N@N@N@N@N@N@N@N@N@N@N@N@",
"W@W@W@W@X@] ] ] Y@W@W@W@W@Z@`@ #S@] ] .#+#@#] ] ] ] ] ] ] ] ] ] ] ] @###Z@W@W@W@W@W@W@W@W@W@W@W@",
"$#$#$#$#$#%#] ] ] &#*#$#$#=#] ] ] -#;#%#@#] ] ] ] ] ] ] ] ] ] ] ] ] ] ] ] >#*#$#$#$#$#$#$#$#$#$#",
",#,#,#,#,#,#'#] ] ] ] )#!#~#{#{#]#^#/#] ] ] ] ] ] ] ] ] ] ] ] ] ] ] ] ] ] ] ] )#(#,#,#,#,#,#,#,#",
"_#_#_#_#_#_#_#:#<#] ] ] ] ] ] ] ] ] ] ] ] [#}#[#] ] ] ] ] ] ] ] ] ] ] ] ] ] ] ] ] [#|#_#_#_#_#_#",
"1#1#1#1#1#1#1#1#2#3#] ] ] ] ] ] ] ] ] 4#5#1#1#1#2#3#] ] ] ] ] ] ] ] ] ] ] ] ] ] ] ] ] 6#7#1#1#1#",
"8#8#8#8#8#8#8#8#8#8#9#0#a#b#b#b#b#c#d#8#8#8#8#8#8#8#e#a#<#] ] ] ] ] ] ] ] ] ] ] ] ] ] a#4#8#8#8#",
"f#f#f#f#f#f#f#f#f#f#f#f#f#f#f#f#f#f#f#f#f#f#f#f#f#f#f#f#g#h#i#] ] ] ] ] ] ] ] ] ] ] ] j#] f#f#f#",
"k#k#k#k#k#k#k#k#k#k#k#k#k#k#k#k#k#k#k#k#k#k#k#k#k#k#k#k#k#k#l#m#n#] ] ] ] ] ] ] ] ] ] o#] k#k#k#",
"p#p#p#p#p#p#p#p#p#p#p#p#p#p#p#p#p#p#p#p#p#p#p#p#p#p#p#p#p#p#p#p#p#q#n#] ] ] ] ] ] ] r#r#] p#p#p#",
"s#s#s#s#s#s#s#s#s#s#s#s#s#s#s#s#s#s#s#s#s#s#s#s#s#s#s#s#s#s#s#s#s#s#s#t#u#] ] ] ] v#m#] r#s#s#s#",
"s#s#s#s#s#s#s#s#s#s#s#s#s#s#s#s#s#s#s#s#s#s#s#s#s#s#s#s#s#s#s#s#s#s#s#s#s#w#u#] ] u#] v#x#s#s#s#",
"s#s#s#s#s#s#s#s#s#s#s#s#s#s#s#s#s#s#s#s#s#s#s#s#s#s#s#s#s#s#s#s#s#s#s#s#s#s#s#y#r#i#z#x#s#s#s#s#",
"A#A#A#A#A#A#A#A#A#A#A#A#A#A#A#A#A#A#A#A#A#A#A#A#A#A#A#A#A#A#A#A#A#A#A#A#A#A#A#A#A#A#A#A#A#A#A#A#",
"A#A#A#A#A#A#A#A#A#A#A#A#A#A#A#A#A#A#A#A#A#A#A#A#A#A#A#A#A#A#A#A#A#A#A#A#A#A#A#A#A#A#A#A#A#A#A#A#",
"A#A#A#A#A#A#A#A#A#A#A#A#A#A#A#A#A#A#A#A#A#A#A#A#A#A#A#A#A#A#A#A#A#A#A#A#A#A#A#A#A#A#A#A#A#A#A#A#",
"B#B#B#B#B#B#B#B#B#B#B#B#B#B#B#B#B#B#B#B#B#B#B#B#B#B#B#B#B#B#B#B#B#B#B#B#B#B#B#B#B#B#B#B#B#B#B#B#",
"B#B#B#B#B#B#B#B#B#B#B#B#B#B#B#B#B#B#B#B#B#B#B#B#B#B#B#B#B#B#B#B#B#B#B#B#B#B#B#B#B#B#B#B#B#B#B#B#",
"  B#B#B#B#B#B#B#B#B#B#B#B#B#B#B#B#B#B#B#B#B#B#B#B#B#B#B#B#B#B#B#B#B#B#B#B#B#B#B#B#B#B#B#B#B#B#  ",
"  C#C#C#C#C#C#C#C#C#C#C#C#C#C#C#C#C#C#C#C#C#C#C#C#C#C#C#C#C#C#C#C#C#C#C#C#C#C#C#C#C#C#C#C#C#C#  ",
"    C#C#C#C#C#C#C#C#C#C#C#C#C#C#C#C#C#C#C#C#C#C#C#C#C#C#C#C#C#C#C#C#C#C#C#C#C#C#C#C#C#C#C#C#    ",
"        D#D#D#D#D#D#D#D#D#D#D#D#D#D#D#D#D#D#D#D#D#D#D#D#D#D#D#D#D#D#D#D#D#D#D#D#D#D#D#D#        "};
